<svg id="Lag_1" data-name="Lag 1" xmlns="http://www.w3.org/2000/svg" width="454.37" height="132.62" viewBox="0 0 454.37 132.62"><defs><style>.cls-1{fill:lime;fill-rule:evenodd;}.cls-2{fill:#fff;}</style></defs><title>Artboard 4</title><path class="cls-1" d="M63.24,64.51A27.06,27.06,0,1,1,36.41,37.22,27.06,27.06,0,0,1,63.24,64.51ZM40.34,51.79a4.22,4.22,0,1,1-5.61-4V45.64H32.05V42.8h2.68V40.13h2.83V42.8h2.67v2.84H37.56v2.2A4.21,4.21,0,0,1,40.34,51.79Zm-2.51,0a1.71,1.71,0,1,0-1.71,1.71A1.72,1.72,0,0,0,37.83,51.79ZM49.07,80.3H23.3v3H49.07Zm-.14-3.7M49,78H23.22v0h-.06c-3.14-2.79-8-8.54-7.74-13.6a6.23,6.23,0,0,1,4.51-5.91,7.26,7.26,0,0,1,6.14.92,5.43,5.43,0,0,1,2.85-2,6.36,6.36,0,0,1,7.16,2,6.59,6.59,0,0,1,7.13-2.09,5.6,5.6,0,0,1,3,2.09,7.32,7.32,0,0,1,6.28-.9,6.2,6.2,0,0,1,4.42,6C57.09,69.56,52.18,75.22,49,78ZM32,75c-3.06-2.95-6.89-7.36-6.89-11.44,0-.32,0-.62,0-.92-2-1.48-3.05-1.54-4.35-1.2a2.91,2.91,0,0,0-2.22,3.11c-.08,2.52,1.5,6,5.78,10.45ZM44.28,63.55c0-2-.88-3.64-3-3.64a3.58,3.58,0,0,0-3.67,3.42v.1a3.05,3.05,0,0,0,2.18,3.1,21.21,21.21,0,0,1-3.69,4c-.11.1,0,.1-.13,0a18.81,18.81,0,0,1-3.45-4,3.19,3.19,0,0,0,2.27-3.09h0A3.22,3.22,0,0,0,34.49,62h0l-.12-.24,0-.07a.86.86,0,0,0-.1-.16,1.88,1.88,0,0,0-.16-.23,3.4,3.4,0,0,0-2.37-1.27h-.13a4.21,4.21,0,0,0-1.57.22,2.84,2.84,0,0,0-1.87,2.35,3.18,3.18,0,0,0-.11.82,3.07,3.07,0,0,0,0,.53c.26,2.67,3,6.3,8.1,10.82C41.54,70,44.28,66.25,44.28,63.55Zm9.53,1.08a2.89,2.89,0,0,0-2.19-3.13c-1.3-.36-2.32-.32-4.4,1.17,0,.28,0,.58,0,.88,0,4.08-3.83,8.49-6.89,11.44H47.9C52.23,70.58,53.86,67.15,53.81,64.63Z"/><path class="cls-2" d="M97.86,82.3c1.86,0,3.28-1.1,3.28-2.83V77.4c0-1.73-.93-2.54-3.46-3.69L90,70.19c-4.94-2.25-7.84-3.58-7.84-8.25V57.39A7.58,7.58,0,0,1,90,50h15.56a1,1,0,0,1,1,.93v4.43a.94.94,0,0,1-1,.92H93.28c-1.85,0-3.27,1.1-3.27,2.83v1.74c0,1.84,1.44,2.3,3.61,3.28l7.11,3.52c5.56,2.54,8.21,4.27,8.21,9v4.73c0,4.09-3.91,7.38-8.3,7.38H82.55a.94.94,0,0,1-1-.92V83.22a.94.94,0,0,1,1-.92Z"/><path class="cls-2" d="M125.28,82.17a.91.91,0,0,0,.91,1h3.64a1,1,0,0,1,1,1v3.7a1,1,0,0,1-1,1H114.29a1,1,0,0,1-1-1v-3.7a1,1,0,0,1,1-1h2.91a.92.92,0,0,0,.91-1V65.85a.9.9,0,0,0-.91-1h-1.94a1,1,0,0,1-1-1v-3.7a1,1,0,0,1,1-1h9a1,1,0,0,1,1,1Zm-4-34.77A4.37,4.37,0,1,1,117,51.77,4.48,4.48,0,0,1,121.28,47.4Z"/><path class="cls-2" d="M219,75.33a.91.91,0,0,1-.91,1H201.91v.91c0,3.64,3.1,5.89,7.47,5.89h7.52a1,1,0,0,1,1,1v3.76a1,1,0,0,1-1,1h-8.8c-7.65,0-13.35-4-13.35-11.89V69.32c0-6,2.8-10.68,12.51-10.68,8.31,0,11.71,4.19,11.71,9.29Zm-17.06-5c0,.55.19.85.79.85h8.38a.9.9,0,0,0,.91-1V68.9c0-2.74-1.15-4.62-5-4.62-4.24,0-5.09,2.07-5.09,4.74Z"/><path class="cls-2" d="M228.27,65.87a.91.91,0,0,0-.91-1h-1.94a1,1,0,0,1-1-1v-3.7a1,1,0,0,1,1-1h14.81a7.54,7.54,0,0,1,7.7,7.59v2.3a1,1,0,0,1-1,1h-4.67a.9.9,0,0,1-.91-1V67.69c0-1.82-1.39-2.8-3.22-2.8h-1.82a.92.92,0,0,0-.91,1V82.19a.9.9,0,0,0,.91,1h5.59a1,1,0,0,1,1,1v3.7a1,1,0,0,1-1,1H225.42a1,1,0,0,1-1-1v-3.7a1,1,0,0,1,1-1h1.94a.9.9,0,0,0,.91-1Z"/><path class="cls-2" d="M289.45,65.87a.91.91,0,0,0-.91-1H286.6a1,1,0,0,1-1-1v-3.7a1,1,0,0,1,1-1h14.81a7.53,7.53,0,0,1,7.7,7.58v2.31a1,1,0,0,1-1,1h-4.67a.9.9,0,0,1-.91-1V67.69c0-1.81-1.4-2.79-3.22-2.79h-1.82a.91.91,0,0,0-.91,1V82.2a.9.9,0,0,0,.91,1h5.58a1,1,0,0,1,1,1v3.7a1,1,0,0,1-1,1H286.59a1,1,0,0,1-1-1v-3.7a1,1,0,0,1,1-1h2a.91.91,0,0,0,.9-1Z"/><path class="cls-2" d="M328.13,67.94c0-2.24-2.37-3.64-5.47-3.64s-8.38.79-8.8.79-.6-.19-.6-.67V60.35c0-.36,0-.85.66-1a75.15,75.15,0,0,1,8.56-.73c7.16,0,12.81,2.13,12.81,9.35V81.6a1.4,1.4,0,0,0,1.4,1.58h.24a1,1,0,0,1,1,1v3.71a1,1,0,0,1-1,1h-2.19c-3.21,0-4.73-1-5.4-3.28-.12-.36-.3-.48-.48-.48a.57.57,0,0,0-.55.42c-.91,2.3-2.43,3.34-6.25,3.34h-2.49a7.67,7.67,0,0,1-8-7.65V79.9c0-4.5,3.34-7.05,7.71-8l8.86-1.89Zm-4.62,15.23c4.12,0,4.61-2.3,4.61-6.13V75l-6.8,1.7A3.28,3.28,0,0,0,318.71,80v.6c0,1.64,1.4,2.61,3.22,2.61Z"/><path class="cls-2" d="M371.41,56.17a4.37,4.37,0,1,0-4.31-4.37A4.47,4.47,0,0,0,371.41,56.17Z"/><path class="cls-2" d="M380,83.18h-3.65a.9.9,0,0,1-.9-1v-22a1,1,0,0,0-1-1H353.57a1,1,0,0,1-1-1v-.55a4.07,4.07,0,0,1,4.06-4.07h2a1,1,0,0,0,1-1V49a.91.91,0,0,0-.91-.91h-3.52c-6,0-9.77,2.36-9.77,8.19v2.12a.92.92,0,0,1-.92.91h-3a1,1,0,0,0-1,1v3.7a1,1,0,0,0,1,1h3a1,1,0,0,1,1,1v22a1,1,0,0,0,1,1h5.21a1,1,0,0,0,1-1v-22a.91.91,0,0,1,.91-.91h13.83a.92.92,0,0,1,.91,1V82.21a.91.91,0,0,1-.9,1h-2.92a1,1,0,0,0-1,1v3.7a1,1,0,0,0,1,1H380a1,1,0,0,0,1-1v-3.7A1,1,0,0,0,380,83.18Z"/><path class="cls-2" d="M151.39,73.87a1.19,1.19,0,0,1,0-1.83l8.8-11a1.78,1.78,0,0,0,.42-1c0-.49-.42-.79-1.09-.79h-4.37c-1.45,0-1.88.36-2.91,1.7l-6.62,8.37c-.13.16-.24.32-.35.48h-2.5V54a1,1,0,0,0-1-1h-5.28a.91.91,0,0,0-.91,1V87.82a.9.9,0,0,0,.91,1h5.28a1,1,0,0,0,1-1V76.1H145A11,11,0,0,0,146.29,78L154,87.82a2.24,2.24,0,0,0,2.18,1h5c.67,0,1.09-.31,1.09-.79a1.76,1.76,0,0,0-.42-1Z"/><path class="cls-2" d="M181.75,73.87a1.6,1.6,0,0,1-.42-.91,1.54,1.54,0,0,1,.42-.91l8.8-11a1.78,1.78,0,0,0,.43-1c0-.48-.43-.79-1.1-.79h-4.36c-1.46,0-1.89.37-2.92,1.7L176,69.32a4.14,4.14,0,0,0-.34.48h-2.51V54a1,1,0,0,0-1-1h-5.28a.92.92,0,0,0-.91,1V87.82a.91.91,0,0,0,.91,1h5.28a1,1,0,0,0,1-1V76.1h2.2a11.49,11.49,0,0,0,1.32,1.9l7.71,9.83a2.23,2.23,0,0,0,2.18,1h5c.67,0,1.09-.3,1.09-.79a1.8,1.8,0,0,0-.42-1Z"/><path class="cls-2" d="M412,87,401.51,73.9a1.21,1.21,0,0,1,0-1.83l8.81-11a1.76,1.76,0,0,0,.42-1c0-.49-.42-.79-1.09-.79h-4.37c-1.46,0-1.88.37-2.92,1.7l-6.61,8.38a3.82,3.82,0,0,0-.35.47h-2.5V53.76a1,1,0,0,0-1-1h-5.27a.9.9,0,0,0-.91,1v34.1a.91.91,0,0,0,.91,1h5.28a1,1,0,0,0,1-1V76.13h2.21A10.41,10.41,0,0,0,396.41,78l7.71,9.83a2.23,2.23,0,0,0,2.18,1h5c.67,0,1.1-.3,1.1-.79A1.8,1.8,0,0,0,412,87Z"/><path class="cls-2" d="M266.41,57a.92.92,0,0,0-.92-1h-9.34a1,1,0,0,1-1-1V50.82a1,1,0,0,1,1-1h28a1,1,0,0,1,1,1V55a1,1,0,0,1-1,1h-9.34a.92.92,0,0,0-.92,1V87.88a1,1,0,0,1-1,1h-5.6a.92.92,0,0,1-.92-1Z"/><path class="cls-2" d="M110.52,28.48c0-1.14-1.21-1.86-2.79-1.86s-4.28.41-4.49.41-.31-.1-.31-.35V24.61c0-.19,0-.44.34-.5a36.81,36.81,0,0,1,4.37-.37c3.65,0,6.53,1.09,6.53,4.77v6.94a.71.71,0,0,0,.72.81H115a.5.5,0,0,1,.5.5v1.89a.49.49,0,0,1-.5.49h-1.12c-1.64,0-2.41-.49-2.75-1.67a.52.52,0,0,0-.16-.25c-.22,0-.31.06-.37.22-.47,1.18-1.24,1.7-3.19,1.7h-1.27a3.91,3.91,0,0,1-4.09-3.9v-.65c0-2.3,1.7-3.6,3.94-4.06l4.52-1Zm-1.8-11.77a3.13,3.13,0,1,1-3.13,3.13A3.12,3.12,0,0,1,108.72,16.71Zm-.56,19.55c2.11,0,2.36-1.18,2.36-3.13v-1l-3.47.87a1.67,1.67,0,0,0-1.34,1.64v.31c0,.83.72,1.33,1.65,1.33Zm.56-15.09a1.33,1.33,0,1,0-1.33-1.33A1.32,1.32,0,0,0,108.72,21.17Z"/><path class="cls-2" d="M126.62,23.9a.47.47,0,0,0,.47-.5V18.82a.46.46,0,0,1,.46-.5h2.7a.49.49,0,0,1,.49.5v16c0,3.41-2.2,4.58-6.91,4.58-4.18,0-6.1-1.52-6.1-4.58V28.33c0-2.88,2.08-4.59,5.76-4.59C124.79,23.74,125.63,23.9,126.62,23.9Zm-5.24,5.48v5.05c0,1.27.53,2,2.57,2h.5c2.11,0,2.63-.72,2.63-2v-7c0-.37-1.3-.65-2.94-.65C121.72,26.78,121.38,27.52,121.38,29.38Z"/><path class="cls-2" d="M146.37,32.27a.45.45,0,0,1-.46.49h-8.24v.47c0,1.86,1.57,3,3.81,3h3.84a.49.49,0,0,1,.49.5v1.92a.49.49,0,0,1-.49.5h-4.5c-3.9,0-6.81-2-6.81-6.08V29.2c0-3.07,1.42-5.45,6.38-5.45,4.25,0,6,2.13,6,4.74Zm-8.7-2.55c0,.28.09.44.4.44h4.27a.47.47,0,0,0,.47-.5V29c0-1.39-.59-2.35-2.54-2.35-2.17,0-2.6,1.05-2.6,2.41Z"/><path class="cls-2" d="M150.79,27.16a.47.47,0,0,0-.46-.5h-1.55a.49.49,0,0,1-.5-.49v-1.9a.49.49,0,0,1,.5-.49h1.55a.47.47,0,0,0,.46-.5V20.4a.46.46,0,0,1,.47-.49H154a.49.49,0,0,1,.49.49v2.88a.46.46,0,0,0,.46.5h2.64a.49.49,0,0,1,.49.5v1.89a.48.48,0,0,1-.49.49h-2.64a.47.47,0,0,0-.46.5v6.75c0,1.74.46,2.08,1.7,2.08h1.43a.47.47,0,0,1,.46.49v1.93a.44.44,0,0,1-.46.46h-3.5c-2.42,0-3.29-1-3.29-3.56Z"/><path class="cls-2" d="M168.18,22.23c0-3,1.92-4.18,5-4.18H175a.45.45,0,0,1,.47.47v1.92a.46.46,0,0,1-.47.49h-1.08c-1.55,0-2,.53-2,2.08v.28a.46.46,0,0,0,.47.49h2.47a.5.5,0,0,1,.5.5v1.89a.49.49,0,0,1-.5.49H172.3a.47.47,0,0,0-.47.5V38.38a.48.48,0,0,1-.49.49h-2.7a.46.46,0,0,1-.47-.49V27.16a.46.46,0,0,0-.46-.5h-1.55a.48.48,0,0,1-.49-.49V24.28a.49.49,0,0,1,.49-.5h1.55a.45.45,0,0,0,.46-.49Z"/><path class="cls-2" d="M176.9,28.06c0-2.6,1.62-4.59,6.45-4.59s6.41,2,6.41,4.59V34.6c0,2.64-1.64,4.59-6.41,4.58s-6.45-2-6.45-4.58ZM180.56,34c0,1.42.49,2.29,2.79,2.29s2.75-.86,2.76-2.29V28.65c0-1.4-.53-2.29-2.76-2.29s-2.79.89-2.79,2.29Z"/><path class="cls-2" d="M193.93,27.17a.46.46,0,0,0-.46-.5h-1a.5.5,0,0,1-.5-.5V24.28a.49.49,0,0,1,.5-.49H200A3.84,3.84,0,0,1,204,27.66v1.18a.48.48,0,0,1-.49.49h-2.39a.45.45,0,0,1-.46-.49v-.75A1.45,1.45,0,0,0,199,26.67h-.93a.46.46,0,0,0-.46.5V35.5a.47.47,0,0,0,.46.5h2.85a.49.49,0,0,1,.5.49v1.89a.5.5,0,0,1-.5.5h-8.42a.5.5,0,0,1-.5-.5V36.49a.49.49,0,0,1,.5-.49h1a.46.46,0,0,0,.46-.5Z"/><path class="cls-2" d="M99.64,38.33a1.2,1.2,0,0,1,.16.46c0,.25-.16.37-.44.37h-3c-.35,0-.53-.09-.78-.49l-5-7.44a2,2,0,0,1-.44-1.31v-2.1a.5.5,0,0,1,.5-.5h3a1.64,1.64,0,0,0,1.64-1.67V22.89a1.64,1.64,0,0,0-1.64-1.68H88.85a.47.47,0,0,0-.47.5v17a.48.48,0,0,1-.49.49H85.07a.46.46,0,0,1-.47-.49v-17a.46.46,0,0,0-.46-.5h-1a.49.49,0,0,1-.5-.49v-1.9a.49.49,0,0,1,.5-.49h12a3.94,3.94,0,0,1,3.94,4v3.78a3.94,3.94,0,0,1-3.94,4H94Z"/></svg>
