<svg xmlns="http://www.w3.org/2000/svg" viewBox="0 0 2732 2048"><defs><style>.cls-1{fill:lime;fill-rule:evenodd;}.cls-13,.cls-2,.cls-20,.cls-21,.cls-4{fill:#fff;}.cls-3{fill:#d93232;}.cls-4{font-size:125px;}.cls-13,.cls-20,.cls-21,.cls-4{font-family:Safety;}.cls-5{letter-spacing:-0.02em;}.cls-6{letter-spacing:0em;}.cls-7{letter-spacing:-0.02em;}.cls-8{opacity:0.57;}.cls-9{fill:#00abc3;opacity:0.88;}.cls-10,.cls-11{fill:#00193b;stroke:#00193b;}.cls-10,.cls-18{stroke-miterlimit:10;}.cls-11{stroke-linecap:round;stroke-linejoin:round;stroke-width:8px;}.cls-12{fill:#f20505;opacity:0.65;}.cls-13{font-size:53px;}.cls-14{letter-spacing:-0.02em;}.cls-15{letter-spacing:-0.01em;}.cls-16{letter-spacing:0.02em;}.cls-17,.cls-18{fill:#39bf24;}.cls-18{stroke:#fcfcfc;stroke-width:3px;}.cls-19{fill:#efa62b;}.cls-20{font-size:111px;}.cls-21{font-size:59px;}</style></defs><title>hvor_man_doer</title><g id="Lag_6" data-name="Lag 6"><rect y="1875.5" width="2732" height="172.5"/><path class="cls-1" d="M125.45,1980c-.17,18.53-16.46,33.42-36.4,33.26s-36-15.29-35.79-33.82S69.72,1946,89.65,1946.2,125.61,1961.49,125.45,1980ZM94.9,1964.26a5.65,5.65,0,0,1-11.26,0,5.27,5.27,0,0,1,3.77-4.92v-2.72H83.84v-3.51h3.57v-3.31h3.78v3.31h3.57v3.51H91.19v2.74A5.25,5.25,0,0,1,94.9,1964.26Zm-3.35,0a2.29,2.29,0,1,0-2.28,2.11A2.2,2.2,0,0,0,91.55,1964.26Zm15,35.34H72.16v3.7h34.38Zm-.18-4.59.09,1.69H72.06v0H72c-4.19-3.45-10.65-10.58-10.32-16.86a7.81,7.81,0,0,1,6-7.31,10.29,10.29,0,0,1,8.2,1.13,7.09,7.09,0,0,1,3.8-2.44c3.15-1,7.37-.37,9.54,2.52a9.22,9.22,0,0,1,9.52-2.59,7.28,7.28,0,0,1,4,2.59c3.53-1.84,5.89-1.8,8.38-1.12A7.8,7.8,0,0,1,117,1980C117.24,1986.28,110.69,1993.3,106.45,1996.7ZM83.71,1993c-4.09-3.66-9.19-9.12-9.19-14.18,0-.39,0-.77,0-1.14-2.71-1.83-4.07-1.91-5.8-1.48a3.65,3.65,0,0,0-3,3.85c-.11,3.13,2,7.41,7.72,13Zm16.44-14.18c0-2.51-1.17-4.51-4-4.51a4.61,4.61,0,0,0-4.88,4.24.62.62,0,0,0,0,.13,3.81,3.81,0,0,0,2.91,3.84,27.12,27.12,0,0,1-4.92,4.89c-.15.13,0,.13-.18,0a23.93,23.93,0,0,1-4.6-4.9,4,4,0,0,0,3-3.83v0h0a4,4,0,0,0-.41-1.72h0c0-.1-.11-.2-.17-.3l-.06-.09a1.37,1.37,0,0,0-.13-.2,3,3,0,0,0-.22-.28,4.6,4.6,0,0,0-3.17-1.57h-.17a5.89,5.89,0,0,0-2.08.26,3.6,3.6,0,0,0-2.5,2.92,3.75,3.75,0,0,0-.14,1,3.57,3.57,0,0,0,.06.65c.34,3.31,4,7.82,10.8,13.42C96.5,1986.86,100.15,1982.18,100.15,1978.83Zm12.72,1.34a3.65,3.65,0,0,0-2.92-3.88c-1.73-.45-3.1-.39-5.88,1.45,0,.35,0,.72,0,1.09,0,5.06-5.1,10.52-9.18,14.18H105C110.77,1987.55,112.93,1983.3,112.87,1980.17Z"/><path class="cls-2" d="M171.64,2002.08c2.47,0,4.36-1.36,4.36-3.51V1996c0-2.14-1.23-3.15-4.61-4.58l-10.22-4.36c-6.59-2.78-10.46-4.43-10.46-10.22v-5.65c0-5.08,4.61-9.15,10.46-9.15h20.76a1.22,1.22,0,0,1,1.32,1.14v5.5a1.22,1.22,0,0,1-1.32,1.14H165.52c-2.47,0-4.37,1.36-4.37,3.51v2.15c0,2.29,1.93,2.86,4.82,4.07l9.49,4.36c7.42,3.15,10.95,5.3,10.95,11.16v5.86c0,5.08-5.22,9.16-11.07,9.16H151.2a1.23,1.23,0,0,1-1.32-1.15v-5.72a1.23,1.23,0,0,1,1.32-1.14Z"/><path class="cls-2" d="M208.21,2001.92a1.17,1.17,0,0,0,1.21,1.21h4.86a1.24,1.24,0,0,1,1.3,1.2v4.59a1.23,1.23,0,0,1-1.29,1.21H193.55a1.23,1.23,0,0,1-1.29-1.2v-4.59a1.23,1.23,0,0,1,1.29-1.2h3.89a1.17,1.17,0,0,0,1.21-1.21v-20.23a1.17,1.17,0,0,0-1.22-1.21h-2.59a1.23,1.23,0,0,1-1.29-1.2v-4.59a1.24,1.24,0,0,1,1.29-1.21h12.06a1.24,1.24,0,0,1,1.3,1.21Zm-5.34-43.11a5.43,5.43,0,1,1-5.75,5.42A5.77,5.77,0,0,1,202.87,1958.81Z"/><path class="cls-2" d="M333.19,1993.44a1.17,1.17,0,0,1-1.22,1.2H310.44v1.12c0,4.52,4.12,7.31,9.95,7.31h10a1.24,1.24,0,0,1,1.3,1.2v4.66a1.24,1.24,0,0,1-1.3,1.21H318.69c-10.2,0-17.81-5-17.81-14.75V1986c0-7.45,3.73-13.25,16.68-13.25,11.09,0,15.63,5.2,15.63,11.52Zm-22.75-6.17c0,.67.24,1,1.05,1h11.17a1.17,1.17,0,0,0,1.22-1.2v-1.66c0-3.39-1.54-5.72-6.64-5.72-5.67,0-6.8,2.56-6.8,5.87Z"/><path class="cls-2" d="M345.59,1981.7a1.16,1.16,0,0,0-1.21-1.2h-2.59a1.24,1.24,0,0,1-1.29-1.2v-4.59a1.24,1.24,0,0,1,1.29-1.21h19.76c5.75,0,10.27,4.07,10.27,9.41v2.86a1.23,1.23,0,0,1-1.29,1.2H364.3a1.17,1.17,0,0,1-1.22-1.2V1984c0-2.25-1.86-3.46-4.29-3.46h-2.42a1.16,1.16,0,0,0-1.22,1.2v20.24a1.17,1.17,0,0,0,1.21,1.21h7.45a1.23,1.23,0,0,1,1.29,1.2v4.59a1.23,1.23,0,0,1-1.29,1.2h-22a1.24,1.24,0,0,1-1.3-1.21v-4.58a1.23,1.23,0,0,1,1.29-1.21h2.59a1.16,1.16,0,0,0,1.21-1.2Z"/><path class="cls-2" d="M427.2,1981.71a1.16,1.16,0,0,0-1.21-1.2H423.4a1.24,1.24,0,0,1-1.29-1.21v-4.58a1.24,1.24,0,0,1,1.29-1.21h19.76c5.75,0,10.27,4.06,10.27,9.41v2.86a1.23,1.23,0,0,1-1.29,1.2h-6.23a1.17,1.17,0,0,1-1.22-1.2V1984c0-2.25-1.86-3.46-4.29-3.46H438a1.16,1.16,0,0,0-1.22,1.2V2002a1.17,1.17,0,0,0,1.22,1.21h7.45a1.23,1.23,0,0,1,1.29,1.2V2009a1.23,1.23,0,0,1-1.29,1.2h-22a1.24,1.24,0,0,1-1.3-1.21v-4.59a1.23,1.23,0,0,1,1.29-1.2H426a1.16,1.16,0,0,0,1.21-1.2Z"/><path class="cls-2" d="M478.8,1984.27c0-2.78-3.16-4.51-7.29-4.51s-11.17,1-11.74,1-.81-.23-.81-.83v-5c0-.46,0-1.06.89-1.2a103.85,103.85,0,0,1,11.41-.91c9.56,0,17.08,2.64,17.08,11.59v16.86a1.77,1.77,0,0,0,1.86,2h.32a1.24,1.24,0,0,1,1.3,1.2V2009a1.24,1.24,0,0,1-1.3,1.21h-2.91c-4.29,0-6.32-1.21-7.21-4.06-.16-.46-.4-.6-.64-.6a.75.75,0,0,0-.74.52c-1.21,2.86-3.23,4.14-8.34,4.14h-3.31c-6.16,0-10.69-4.14-10.69-9.48v-1.58c0-5.57,4.46-8.73,10.28-9.86l11.83-2.33Zm-6.16,18.89c5.5,0,6.16-2.86,6.16-7.6v-2.48l-9.07,2.1a4.15,4.15,0,0,0-3.48,4v.75c0,2,1.85,3.24,4.29,3.24Z"/><path class="cls-2" d="M536.54,1969.69a5.43,5.43,0,1,0-5.75-5.42A5.76,5.76,0,0,0,536.54,1969.69Z"/><path class="cls-2" d="M547.94,2003.17h-4.86a1.17,1.17,0,0,1-1.21-1.21v-27.23a1.23,1.23,0,0,0-1.29-1.21H512.74a1.24,1.24,0,0,1-1.29-1.2v-.68a5.24,5.24,0,0,1,5.42-5h2.67a1.24,1.24,0,0,0,1.29-1.2v-4.67a1.17,1.17,0,0,0-1.21-1.13h-4.69c-8,0-13,2.93-13,10.16v2.63a1.18,1.18,0,0,1-1.22,1.13h-4a1.26,1.26,0,0,0-1.3,1.21v4.58a1.25,1.25,0,0,0,1.3,1.2h4a1.25,1.25,0,0,1,1.3,1.2V2009a1.26,1.26,0,0,0,1.3,1.21h6.95a1.26,1.26,0,0,0,1.3-1.21v-27.31a1.17,1.17,0,0,1,1.22-1.12h18.45a1.17,1.17,0,0,1,1.21,1.21V2002a1.17,1.17,0,0,1-1.21,1.21h-3.89a1.23,1.23,0,0,0-1.3,1.2V2009a1.23,1.23,0,0,0,1.3,1.2h20.72a1.24,1.24,0,0,0,1.3-1.21v-4.59A1.24,1.24,0,0,0,547.94,2003.17Z"/><path class="cls-2" d="M243,1991.62a1.41,1.41,0,0,1,0-2.26l11.74-13.62a2.08,2.08,0,0,0,.56-1.27c0-.61-.56-1-1.45-1h-5.83c-1.95,0-2.51.45-3.89,2.11L235.34,1986a6.26,6.26,0,0,0-.46.59h-3.34V1967a1.23,1.23,0,0,0-1.29-1.2H223.2A1.17,1.17,0,0,0,222,1967v41.88a1.17,1.17,0,0,0,1.22,1.21h7a1.24,1.24,0,0,0,1.3-1.21v-14.53h2.93a13.9,13.9,0,0,0,1.77,2.35l10.27,12.18a3.07,3.07,0,0,0,2.92,1.21h6.72c.89,0,1.46-.37,1.46-1a2.13,2.13,0,0,0-.57-1.27Z"/><path class="cls-2" d="M283.54,1991.63a1.88,1.88,0,0,1-.57-1.13,1.85,1.85,0,0,1,.57-1.13l11.74-13.62a2.13,2.13,0,0,0,.56-1.28c0-.6-.56-1-1.45-1h-5.83c-1.94,0-2.51.46-3.89,2.11L275.85,1986c-.17.2-.33.39-.47.59H272v-19.52a1.23,1.23,0,0,0-1.29-1.2h-7a1.17,1.17,0,0,0-1.22,1.2v41.87a1.17,1.17,0,0,0,1.22,1.21h7a1.23,1.23,0,0,0,1.3-1.2v-14.54H275a12.61,12.61,0,0,0,1.76,2.35L287,2008.93a3.06,3.06,0,0,0,2.91,1.2h6.72c.89,0,1.46-.38,1.46-1a2.09,2.09,0,0,0-.57-1.28Z"/><path class="cls-2" d="M590.7,2007.92l-14-16.26a1.41,1.41,0,0,1,0-2.26l11.74-13.62a2.11,2.11,0,0,0,.57-1.27c0-.61-.57-1-1.46-1h-5.83c-1.94,0-2.51.45-3.89,2.11L569,1986a6.39,6.39,0,0,0-.47.59H565.2v-19.92a1.23,1.23,0,0,0-1.29-1.2h-7a1.16,1.16,0,0,0-1.22,1.2V2009a1.17,1.17,0,0,0,1.21,1.21h7a1.24,1.24,0,0,0,1.3-1.21v-14.53h2.94a13.71,13.71,0,0,0,1.75,2.35L580.18,2009a3.05,3.05,0,0,0,2.91,1.21h6.72c.89,0,1.46-.37,1.46-1A2.07,2.07,0,0,0,590.7,2007.92Z"/><path class="cls-2" d="M396.47,1970.72a1.18,1.18,0,0,0-1.23-1.22H382.78a1.25,1.25,0,0,1-1.31-1.22v-5.23a1.25,1.25,0,0,1,1.31-1.22h37.39a1.25,1.25,0,0,1,1.31,1.22v5.23a1.25,1.25,0,0,1-1.31,1.22H407.7a1.18,1.18,0,0,0-1.22,1.22V2009a1.26,1.26,0,0,1-1.32,1.22H397.7a1.18,1.18,0,0,1-1.23-1.22Z"/><path class="cls-2" d="M188.51,1935.36c0-1.42-1.61-2.31-3.71-2.31s-5.71.5-6,.5-.41-.11-.41-.42v-2.57c0-.23,0-.54.45-.62a54.36,54.36,0,0,1,5.83-.46c4.88,0,8.72,1.35,8.72,5.92v8.6a.91.91,0,0,0,1,1h.17a.63.63,0,0,1,.66.62V1948a.62.62,0,0,1-.66.61H193c-2.19,0-3.22-.61-3.68-2.07a.6.6,0,0,0-.21-.31c-.29,0-.41.08-.49.27-.62,1.46-1.66,2.11-4.26,2.11h-1.69c-3.15,0-5.46-2.11-5.46-4.84v-.8c0-2.85,2.27-4.46,5.25-5l6-1.18Zm-2.39-14.6a3.89,3.89,0,1,1-4.17,3.88A4,4,0,0,1,186.12,1920.76Zm-.75,24.24c2.82,0,3.14-1.46,3.14-3.88v-1.27l-4.62,1.08a2.11,2.11,0,0,0-1.78,2v.39c0,1,.95,1.65,2.19,1.65Zm.75-18.7a1.66,1.66,0,1,0-1.78-1.66A1.71,1.71,0,0,0,186.12,1926.3Z"/><path class="cls-2" d="M210,1929.68a.6.6,0,0,0,.62-.62v-5.68a.6.6,0,0,1,.62-.62h3.6a.62.62,0,0,1,.65.62v19.9c0,4.22-2.93,5.68-9.21,5.68-5.58,0-8.15-1.88-8.15-5.69v-8.1c0-3.57,2.78-5.69,7.69-5.69C207.56,1929.48,208.67,1929.68,210,1929.68Zm-7,6.8v6.26c0,1.57.7,2.46,3.43,2.46h.66c2.81,0,3.51-.89,3.51-2.46v-8.68c0-.47-1.74-.81-3.93-.81C203.46,1933.25,203,1934.17,203,1936.48Z"/><path class="cls-2" d="M236.35,1940.05a.6.6,0,0,1-.62.62h-11v.57c0,2.3,2.11,3.73,5.08,3.73h5.13a.63.63,0,0,1,.66.61V1948a.63.63,0,0,1-.66.61h-6c-5.2,0-9.09-2.54-9.09-7.53v-4.81c0-3.79,1.9-6.75,8.52-6.75,5.66,0,8,2.65,8,5.88Zm-11.62-3.15c0,.35.13.54.53.54H231a.6.6,0,0,0,.62-.62V1936c0-1.73-.78-2.92-3.39-2.92-2.89,0-3.47,1.3-3.47,3Z"/><path class="cls-2" d="M242.24,1933.72a.6.6,0,0,0-.62-.62h-2.07a.63.63,0,0,1-.66-.61v-2.35a.63.63,0,0,1,.66-.61h2.07a.6.6,0,0,0,.62-.62v-3.57a.6.6,0,0,1,.62-.61h3.6a.63.63,0,0,1,.66.61v3.57a.6.6,0,0,0,.62.62h3.51a.62.62,0,0,1,.66.61v2.35a.62.62,0,0,1-.66.61h-3.51a.6.6,0,0,0-.62.62v8.37c0,2.15.62,2.58,2.27,2.58h1.9a.6.6,0,0,1,.62.61v2.38a.57.57,0,0,1-.62.58h-4.67c-3.22,0-4.38-1.27-4.38-4.42Z"/><path class="cls-2" d="M265.43,1927.61c0-3.69,2.56-5.18,6.66-5.18h2.39a.57.57,0,0,1,.62.57v2.39a.6.6,0,0,1-.62.61H273c-2.06,0-2.72.65-2.72,2.57v.35a.59.59,0,0,0,.62.61h3.3a.63.63,0,0,1,.66.62v2.34a.63.63,0,0,1-.66.62h-3.3a.59.59,0,0,0-.62.61v13.91a.62.62,0,0,1-.65.61h-3.6a.6.6,0,0,1-.62-.61v-13.91a.6.6,0,0,0-.62-.62h-2.07a.62.62,0,0,1-.66-.61v-2.34a.63.63,0,0,1,.66-.62h2.07a.59.59,0,0,0,.62-.61Z"/><path class="cls-2" d="M277.07,1934.84c0-3.23,2.15-5.69,8.6-5.69s8.56,2.46,8.56,5.69v8.1c0,3.27-2.18,5.69-8.55,5.69s-8.6-2.42-8.6-5.69Zm4.88,7.37c0,1.77.66,2.85,3.72,2.85s3.68-1.08,3.68-2.85v-6.64c0-1.73-.7-2.85-3.68-2.85s-3.72,1.12-3.72,2.85Z"/><path class="cls-2" d="M299.79,1933.73a.6.6,0,0,0-.62-.62h-1.32a.63.63,0,0,1-.66-.61v-2.35a.63.63,0,0,1,.66-.61h10.08a5,5,0,0,1,5.26,4.8v1.46a.63.63,0,0,1-.67.61h-3.18a.59.59,0,0,1-.62-.61v-.92c0-1.15-1-1.77-2.19-1.77h-1.24a.6.6,0,0,0-.62.62v10.33a.6.6,0,0,0,.63.61h3.8a.63.63,0,0,1,.66.62v2.34a.63.63,0,0,1-.66.62H297.85a.62.62,0,0,1-.66-.61v-2.35a.62.62,0,0,1,.66-.61h1.32a.6.6,0,0,0,.62-.61Z"/><path class="cls-2" d="M174,1947.56a1.42,1.42,0,0,1,.2.58c0,.31-.2.46-.58.46h-4a1.06,1.06,0,0,1-1-.61l-6.66-9.23a2.39,2.39,0,0,1-.58-1.61v-2.62a.63.63,0,0,1,.66-.61h4a2.11,2.11,0,0,0,2.19-2.08v-3.42a2.11,2.11,0,0,0-2.19-2.07h-6.37a.59.59,0,0,0-.62.61v21a.63.63,0,0,1-.66.61h-3.77a.59.59,0,0,1-.61-.61v-21a.59.59,0,0,0-.62-.61H152a.63.63,0,0,1-.66-.62v-2.34a.63.63,0,0,1,.66-.62h16a5.07,5.07,0,0,1,5.25,4.92v4.69a5.07,5.07,0,0,1-5.25,4.92h-1.53Z"/><rect class="cls-3" y="3" width="2732" height="1873.44"/><text class="cls-4" transform="translate(129.29 214.28)">Hér er der fle<tspan class="cls-5" x="643.92" y="0">s</tspan><tspan class="cls-6" x="689.27" y="0">t dødeulyk</tspan><tspan class="cls-7" x="1191.53" y="0">k</tspan><tspan x="1246.46" y="0">e</tspan></text><g id="graf"><g class="cls-8"><path class="cls-9" d="M2360,1530.6H402.32c-8.38,0-15.16-6.33-15.16-14.13V313.82"/><path class="cls-10" d="M2344.84,1544.73H372V328c0-7.81,6.79-14.14,15.16-14.14h0c8.37,0,15.16,6.33,15.16,14.14V1502.33c0,7.81,6.78,14.13,15.15,14.13H2344.84c8.37,0,15.16,6.33,15.16,14.14h0C2360,1538.4,2353.21,1544.73,2344.84,1544.73Z"/></g><line class="cls-11" x1="619.43" y1="1518.23" x2="619.43" y2="1566.51"/><line class="cls-11" x1="1285.14" y1="1518.23" x2="1285.14" y2="1566.51"/><line class="cls-11" x1="1950.86" y1="1518.23" x2="1950.86" y2="1566.51"/></g><g id="landeveje"><rect x="536.51" y="1630.74" width="45.85" height="35.55"/><polygon points="527.01 1630.74 559.43 1600.52 591.85 1630.74 527.01 1630.74"/><rect x="670.82" y="1598.98" width="38.83" height="67.3"/><polygon points="670.82 1599.01 690.23 1558.54 709.64 1599.01 670.82 1599.01"/><rect x="591.85" y="1638.26" width="68.52" height="28.03"/><path d="M591.85,1638.26l8.09-19.47a9.93,9.93,0,0,1,7.94-3.55h37.45c3.5,0,6.69,1.54,8.22,4l6.82,19Z"/><polygon class="cls-12" points="539.31 1684.21 528.08 1667.85 721.11 1552.68 732.34 1569.05 539.31 1684.21"/></g><g id="landeveje-2" data-name="landeveje"><rect x="1191.98" y="1644.93" width="45.85" height="35.55"/><polygon points="1182.48 1644.93 1214.9 1614.71 1247.32 1644.93 1182.48 1644.93"/><rect x="1326.29" y="1613.17" width="38.83" height="67.3"/><polygon points="1326.29 1613.2 1345.7 1572.73 1365.11 1613.2 1326.29 1613.2"/><rect x="1247.32" y="1652.45" width="68.52" height="28.03"/><path d="M1247.32,1652.45l8.09-19.47a9.91,9.91,0,0,1,7.94-3.55h37.45c3.5,0,6.68,1.54,8.22,4l6.82,19Z"/></g><text class="cls-13" transform="translate(2139.78 1973.25)">Kilde: <tspan class="cls-14" x="124.35" y="0">V</tspan><tspan x="151.26" y="0">ejdire</tspan><tspan class="cls-15" x="274.83" y="0">k</tspan><tspan x="298.41" y="0">o</tspan><tspan class="cls-14" x="324.11" y="0">r</tspan><tspan x="344.19" y="0">ate</tspan><tspan class="cls-16" x="409.97" y="0">t</tspan><tspan x="427.99" y="0">, 2015</tspan></text><polygon class="cls-17" points="1942.02 1724.17 1907.63 1724.17 1927.79 1588.68 1947.95 1588.68 1942.02 1724.17"/><polygon class="cls-17" points="1961.91 1724.17 1996.3 1724.17 1976.14 1588.68 1955.98 1588.68 1961.91 1724.17"/><polygon class="cls-18" points="2005.74 1660.15 2003.24 1652.41 2003.24 1652.41 2003.24 1641.58 1900.82 1641.58 1900.82 1652.2 1898.19 1660.15 1910.96 1660.15 1910.96 1652.41 1992.96 1652.41 1992.96 1660.15 2005.74 1660.15"/><g id="kors"><rect class="cls-19" x="559.43" y="563.03" width="163.41" height="953.43"/><rect class="cls-19" x="577.86" y="552.13" width="131.96" height="428.51" transform="translate(-122.55 1410.23) rotate(-90)"/></g><g id="kors-2" data-name="kors"><rect class="cls-19" x="1214.9" y="964.93" width="149.24" height="551.54"/><rect class="cls-19" x="1222.09" y="921.88" width="126.11" height="428.51" transform="translate(149.01 2421.27) rotate(-90)"/></g><g id="kors-3" data-name="kors"><rect class="cls-19" x="1892.26" y="1283.97" width="114.95" height="232.5"/><rect class="cls-19" x="1900.06" y="1243.4" width="102.05" height="268.68" transform="translate(573.34 3328.83) rotate(-90)"/></g><text class="cls-20" transform="translate(1888.26 1251.4) scale(1.07 1)">6</text><text class="cls-20" transform="translate(1182.14 928.29) scale(1.07 1)">29</text><text class="cls-20" transform="translate(527.31 544.22) scale(1.07 1)">46</text><g id="stickman"><rect class="cls-2" x="682.51" y="471.18" width="3.87" height="50.29"/><ellipse class="cls-2" cx="684.5" cy="456.51" rx="16.38" ry="15.27"/><path class="cls-2" d="M661.27,548.62l-1.5-1a.78.78,0,0,1-.16-1.2l23.32-26,3,2.09-23.32,26A1.09,1.09,0,0,1,661.27,548.62Z"/><path class="cls-2" d="M706.25,548.48l-23.32-26,3-2.09,23.32,26a.78.78,0,0,1-.16,1.2l-1.5,1A1.09,1.09,0,0,1,706.25,548.48Z"/><path class="cls-2" d="M661.11,498.22l-1.18-.81a1,1,0,0,1-.2-1.45l23.2-25.83,3,2.09-23.2,25.83A1.3,1.3,0,0,1,661.11,498.22Z"/><path class="cls-2" d="M706.4,498.35l-23.47-26.13,3-2.09,23.47,26.13a.6.6,0,0,1-.12.91l-1.88,1.29A.82.82,0,0,1,706.4,498.35Z"/></g><g id="stickman-2" data-name="stickman"><rect class="cls-2" x="1350.04" y="862.31" width="3.87" height="50.29"/><ellipse class="cls-2" cx="1352.02" cy="847.64" rx="16.38" ry="15.27"/><path class="cls-2" d="M1328.79,939.76l-1.5-1a.79.79,0,0,1-.16-1.21l23.32-26,3,2.09-23.32,26A1.09,1.09,0,0,1,1328.79,939.76Z"/><path class="cls-2" d="M1373.77,939.61l-23.32-26,3-2.09,23.32,26a.79.79,0,0,1-.16,1.21l-1.5,1A1.09,1.09,0,0,1,1373.77,939.61Z"/><path class="cls-2" d="M1328.63,889.36l-1.18-.81a1,1,0,0,1-.2-1.46l23.2-25.82,3,2.09-23.19,25.82A1.32,1.32,0,0,1,1328.63,889.36Z"/><path class="cls-2" d="M1373.92,889.49l-23.47-26.13,3-2.09L1377,887.4a.59.59,0,0,1-.12.91L1375,889.6A.82.82,0,0,1,1373.92,889.49Z"/></g><g id="stickman-3" data-name="stickman"><rect class="cls-2" x="2004.79" y="1185.18" width="3.87" height="50.29"/><ellipse class="cls-2" cx="2006.77" cy="1170.51" rx="16.38" ry="15.27"/><path class="cls-2" d="M1983.54,1262.62l-1.49-1a.78.78,0,0,1-.17-1.2l23.32-26,3,2.09-23.32,26A1.08,1.08,0,0,1,1983.54,1262.62Z"/><path class="cls-2" d="M2028.52,1262.47l-23.32-26,3-2.09,23.32,26a.78.78,0,0,1-.16,1.2l-1.5,1A1.08,1.08,0,0,1,2028.52,1262.47Z"/><path class="cls-2" d="M1983.38,1212.22l-1.17-.81a.94.94,0,0,1-.2-1.45l23.19-25.83,3,2.09-23.19,25.83A1.32,1.32,0,0,1,1983.38,1212.22Z"/><path class="cls-2" d="M2028.67,1212.35l-23.47-26.13,3-2.09,23.47,26.13a.59.59,0,0,1-.12.91l-1.88,1.29A.82.82,0,0,1,2028.67,1212.35Z"/></g><text class="cls-21" transform="translate(523.75 1734.25)">Land<tspan class="cls-15" x="111.49" y="0">ev</tspan><tspan x="163.69" y="0">ej</tspan></text><text class="cls-21" transform="translate(1198.84 1734.25)">Byzone</text><text class="cls-21" transform="translate(1849.94 1777.66)">Motor<tspan class="cls-15" x="142.14" y="0">v</tspan><tspan x="167.26" y="0">ej</tspan></text></g></svg>
