<svg xmlns="http://www.w3.org/2000/svg" viewBox="0 0 2732 2048"><defs><style>.cls-1{fill:lime;fill-rule:evenodd;}.cls-11,.cls-2,.cls-6,.cls-8{fill:#fff;}.cls-3{fill:#011526;opacity:0.86;}.cls-4{fill:#efa62b;}.cls-5,.cls-6{font-size:100px;}.cls-5,.cls-9{fill:#fcfcfc;}.cls-11,.cls-5,.cls-6,.cls-8,.cls-9{font-family:Safety;}.cls-7{letter-spacing:-0.02em;}.cls-8{font-size:140.76px;}.cls-9{font-size:53px;}.cls-10{letter-spacing:-0.02em;}.cls-11{font-size:125px;}.cls-12{letter-spacing:-0.01em;}.cls-13{letter-spacing:-0.02em;}.cls-14{letter-spacing:0em;}.cls-15{letter-spacing:-0.02em;}.cls-16{letter-spacing:-0.02em;}.cls-17{letter-spacing:0em;}</style></defs><title>koen</title><g id="Lag_5" data-name="Lag 5"><rect y="1876.44" width="2731.61" height="171.56"/><path class="cls-1" d="M125.43,1980.39c-.17,18.43-16.46,33.24-36.39,33.09s-35.95-15.22-35.79-33.64,16.46-33.24,36.39-33.08S125.6,1962,125.43,1980.39Zm-30.54-15.67a5.65,5.65,0,0,1-11.26,0,5.23,5.23,0,0,1,3.77-4.89v-2.7H83.83v-3.49H87.4v-3.3h3.77v3.3h3.57v3.49H91.17v2.71A5.25,5.25,0,0,1,94.89,1964.72Zm-3.36,0a2.28,2.28,0,1,0-2.27,2.1A2.2,2.2,0,0,0,91.53,1964.72Zm15,35.14H72.15v3.69h34.38Zm-.19-4.56.1,1.68-.19,0H72.05v0H72c-4.19-3.43-10.65-10.52-10.32-16.76a7.79,7.79,0,0,1,6-7.28c2.46-.64,4.78-.66,8.2,1.13a7.15,7.15,0,0,1,3.79-2.43c3.16-1,7.37-.36,9.55,2.51a9.23,9.23,0,0,1,9.52-2.58,7.41,7.41,0,0,1,4,2.57c3.53-1.82,5.88-1.78,8.37-1.11a7.77,7.77,0,0,1,5.91,7.35C117.22,1986.62,110.68,1993.6,106.44,1997Zm-22.75-3.67c-4.08-3.63-9.18-9.07-9.18-14.1,0-.39,0-.76,0-1.13-2.71-1.83-4.07-1.9-5.8-1.48a3.63,3.63,0,0,0-3,3.83c-.11,3.11,2,7.37,7.71,12.88Zm16.44-14.1c0-2.49-1.16-4.48-4-4.48a4.6,4.6,0,0,0-4.89,4.22v.12a3.8,3.8,0,0,0,2.9,3.82,27.23,27.23,0,0,1-4.91,4.86c-.15.13,0,.13-.18,0a23.78,23.78,0,0,1-4.6-4.87,4,4,0,0,0,3-3.81v0h0a3.81,3.81,0,0,0-.4-1.71h0c0-.1-.1-.2-.16-.3l-.06-.09-.13-.2-.22-.27a4.66,4.66,0,0,0-3.17-1.57h-.17a6.19,6.19,0,0,0-2.09.26,3.59,3.59,0,0,0-2.49,2.9,3.86,3.86,0,0,0-.14,1,3.39,3.39,0,0,0,.06.64c.34,3.3,4,7.78,10.8,13.35C96.49,1987.2,100.13,1982.54,100.13,1979.21Zm12.72,1.34a3.64,3.64,0,0,0-2.91-3.87c-1.74-.44-3.11-.39-5.88,1.45,0,.35,0,.71,0,1.08,0,5-5.11,10.47-9.19,14.1H105C110.75,1987.88,112.91,1983.66,112.85,1980.55Z"/><path class="cls-2" d="M171.61,2002.33c2.47,0,4.37-1.35,4.37-3.49v-2.55c0-2.14-1.24-3.13-4.62-4.55l-10.21-4.34c-6.59-2.77-10.47-4.41-10.47-10.17v-5.62c0-5,4.62-9.1,10.47-9.1h20.76a1.23,1.23,0,0,1,1.32,1.14v5.46a1.23,1.23,0,0,1-1.32,1.14H165.5c-2.48,0-4.37,1.35-4.37,3.49v2.14c0,2.27,1.93,2.84,4.81,4l9.5,4.34c7.41,3.12,10.94,5.26,10.94,11.09v5.83c0,5-5.21,9.1-11.06,9.1H151.18a1.22,1.22,0,0,1-1.32-1.13v-5.69a1.23,1.23,0,0,1,1.32-1.14Z"/><path class="cls-2" d="M208.18,2002.17a1.17,1.17,0,0,0,1.21,1.21h4.86a1.22,1.22,0,0,1,1.29,1.19v4.56a1.23,1.23,0,0,1-1.29,1.2H193.53a1.23,1.23,0,0,1-1.3-1.2v-4.56a1.24,1.24,0,0,1,1.3-1.2h3.88a1.16,1.16,0,0,0,1.21-1.2v-20.12a1.17,1.17,0,0,0-1.22-1.2h-2.59a1.23,1.23,0,0,1-1.29-1.19v-4.57a1.24,1.24,0,0,1,1.3-1.2h12a1.24,1.24,0,0,1,1.3,1.2Zm-5.34-42.87a5.4,5.4,0,1,1-5.75,5.39A5.76,5.76,0,0,1,202.84,1959.3Z"/><path class="cls-2" d="M333.14,1993.74a1.16,1.16,0,0,1-1.21,1.19H310.39v1.12c0,4.49,4.13,7.26,10,7.27h10a1.23,1.23,0,0,1,1.3,1.19v4.64a1.24,1.24,0,0,1-1.3,1.2H318.65c-10.2,0-17.81-4.95-17.81-14.67v-9.35c0-7.41,3.72-13.17,16.68-13.17,11.09,0,15.62,5.17,15.62,11.45Zm-22.75-6.14c0,.67.24,1,1.05,1h11.18a1.16,1.16,0,0,0,1.21-1.19v-1.64c0-3.37-1.54-5.69-6.64-5.7-5.66,0-6.8,2.55-6.8,5.84Z"/><path class="cls-2" d="M345.54,1982.07a1.16,1.16,0,0,0-1.21-1.2h-2.59a1.24,1.24,0,0,1-1.29-1.2v-4.56a1.23,1.23,0,0,1,1.29-1.2H361.5c5.74,0,10.27,4,10.27,9.35v2.85a1.23,1.23,0,0,1-1.29,1.19h-6.24a1.16,1.16,0,0,1-1.21-1.19v-1.8c0-2.24-1.86-3.44-4.29-3.44h-2.43a1.16,1.16,0,0,0-1.21,1.2v20.12a1.16,1.16,0,0,0,1.21,1.2h7.45a1.24,1.24,0,0,1,1.29,1.2v4.56a1.23,1.23,0,0,1-1.29,1.2h-22a1.23,1.23,0,0,1-1.29-1.2v-4.57a1.22,1.22,0,0,1,1.29-1.19h2.59a1.16,1.16,0,0,0,1.21-1.2Z"/><path class="cls-2" d="M427.14,1982.08a1.16,1.16,0,0,0-1.21-1.2h-2.59a1.23,1.23,0,0,1-1.29-1.2v-4.56a1.23,1.23,0,0,1,1.29-1.2h19.75c5.75,0,10.28,4,10.28,9.35v2.85a1.23,1.23,0,0,1-1.29,1.19h-6.24a1.16,1.16,0,0,1-1.21-1.19v-1.8c0-2.24-1.86-3.44-4.29-3.44h-2.43a1.17,1.17,0,0,0-1.22,1.2v20.12a1.17,1.17,0,0,0,1.22,1.2h7.45a1.24,1.24,0,0,1,1.29,1.2v4.56a1.23,1.23,0,0,1-1.29,1.2h-22a1.24,1.24,0,0,1-1.3-1.2v-4.57a1.23,1.23,0,0,1,1.3-1.19h2.59a1.16,1.16,0,0,0,1.21-1.2Z"/><path class="cls-2" d="M478.73,1984.62c0-2.76-3.16-4.49-7.29-4.49s-11.17,1-11.74,1-.8-.23-.8-.83v-5c0-.45,0-1,.89-1.19a106.43,106.43,0,0,1,11.41-.9c9.56,0,17.08,2.62,17.08,11.52v16.76a1.77,1.77,0,0,0,1.86,2h.32a1.23,1.23,0,0,1,1.3,1.19v4.57a1.24,1.24,0,0,1-1.3,1.2h-2.91c-4.29,0-6.32-1.2-7.21-4-.16-.46-.4-.6-.64-.6a.73.73,0,0,0-.73.52c-1.22,2.84-3.24,4.11-8.34,4.11h-3.32c-6.15,0-10.68-4.11-10.68-9.42v-1.57c0-5.54,4.45-8.69,10.28-9.81l11.82-2.32Zm-6.16,18.79c5.51,0,6.16-2.85,6.16-7.56v-2.47l-9.07,2.09a4.14,4.14,0,0,0-3.48,4v.75c0,2,1.86,3.22,4.29,3.22Z"/><path class="cls-2" d="M536.46,1970.12a5.4,5.4,0,1,0-5.75-5.39A5.77,5.77,0,0,0,536.46,1970.12Z"/><path class="cls-2" d="M547.86,2003.42H543a1.16,1.16,0,0,1-1.21-1.2v-27.08a1.24,1.24,0,0,0-1.3-1.2H512.66a1.25,1.25,0,0,1-1.29-1.19v-.68a5.23,5.23,0,0,1,5.43-5h2.67a1.25,1.25,0,0,0,1.29-1.2v-4.64a1.17,1.17,0,0,0-1.21-1.12h-4.7c-8,0-13,2.91-13,10.1v2.61a1.18,1.18,0,0,1-1.22,1.13h-4a1.25,1.25,0,0,0-1.3,1.2v4.56a1.25,1.25,0,0,0,1.29,1.2h4a1.25,1.25,0,0,1,1.3,1.2v27.08a1.25,1.25,0,0,0,1.29,1.2h7a1.25,1.25,0,0,0,1.3-1.2V1982a1.17,1.17,0,0,1,1.21-1.12H531a1.16,1.16,0,0,1,1.21,1.2v20.12a1.16,1.16,0,0,1-1.21,1.2h-3.89a1.24,1.24,0,0,0-1.29,1.2v4.56a1.23,1.23,0,0,0,1.29,1.2h20.72a1.23,1.23,0,0,0,1.3-1.2v-4.56A1.23,1.23,0,0,0,547.86,2003.42Z"/><path class="cls-2" d="M243,1991.93a1.4,1.4,0,0,1,0-2.25l11.74-13.54a2.11,2.11,0,0,0,.57-1.27c0-.6-.57-1-1.46-1H248c-1.94,0-2.51.45-3.88,2.09l-8.83,10.33a6.26,6.26,0,0,0-.46.59h-3.34v-19.42a1.24,1.24,0,0,0-1.3-1.2h-7a1.16,1.16,0,0,0-1.21,1.2v41.64a1.17,1.17,0,0,0,1.22,1.2h7a1.23,1.23,0,0,0,1.29-1.2v-14.46h2.93a13.9,13.9,0,0,0,1.76,2.34l10.28,12.12a3.07,3.07,0,0,0,2.91,1.2h6.72c.89,0,1.46-.37,1.46-1a2.05,2.05,0,0,0-.57-1.26Z"/><path class="cls-2" d="M283.5,1991.94a1.4,1.4,0,0,1,0-2.25l11.73-13.54a2.07,2.07,0,0,0,.57-1.27c0-.6-.57-1-1.45-1h-5.83c-1.95,0-2.51.45-3.89,2.1l-8.82,10.32c-.17.2-.33.39-.47.59H272v-19.42a1.23,1.23,0,0,0-1.3-1.19h-7a1.16,1.16,0,0,0-1.22,1.19v41.65a1.16,1.16,0,0,0,1.21,1.2h7a1.23,1.23,0,0,0,1.3-1.2v-14.45h2.94a12.85,12.85,0,0,0,1.76,2.33L287,2009.14a3.06,3.06,0,0,0,2.91,1.2h6.72c.89,0,1.45-.37,1.45-1a2.13,2.13,0,0,0-.56-1.27Z"/><path class="cls-2" d="M590.62,2008.14l-14-16.17a1.41,1.41,0,0,1,0-2.25l11.75-13.54a2.08,2.08,0,0,0,.56-1.27c0-.6-.56-1-1.45-1h-5.84c-1.93,0-2.5.45-3.88,2.09l-8.83,10.33a6.26,6.26,0,0,0-.46.59h-3.34v-19.81a1.23,1.23,0,0,0-1.29-1.2h-7a1.17,1.17,0,0,0-1.22,1.2v42a1.16,1.16,0,0,0,1.21,1.2h7a1.24,1.24,0,0,0,1.3-1.21v-14.45h2.94a13.29,13.29,0,0,0,1.75,2.34l10.28,12.12a3.09,3.09,0,0,0,2.92,1.2h6.71c.9,0,1.47-.37,1.47-1A2.11,2.11,0,0,0,590.62,2008.14Z"/><path class="cls-2" d="M396.42,1971.15a1.18,1.18,0,0,0-1.23-1.22H382.73a1.25,1.25,0,0,1-1.32-1.21v-5.21a1.25,1.25,0,0,1,1.32-1.21h37.38a1.25,1.25,0,0,1,1.31,1.21v5.21a1.25,1.25,0,0,1-1.31,1.21H407.65a1.18,1.18,0,0,0-1.23,1.22v38.06a1.25,1.25,0,0,1-1.31,1.21h-7.46a1.18,1.18,0,0,1-1.23-1.21Z"/><path class="cls-2" d="M188.49,1936c0-1.41-1.61-2.29-3.72-2.29s-5.7.49-6,.49-.42-.11-.42-.42v-2.56c0-.23,0-.53.46-.61a54.18,54.18,0,0,1,5.82-.46c4.88,0,8.72,1.34,8.72,5.89v8.55a.91.91,0,0,0,.95,1h.17a.63.63,0,0,1,.66.61v2.33a.63.63,0,0,1-.66.61H193c-2.19,0-3.22-.61-3.68-2.06a.62.62,0,0,0-.2-.31c-.29,0-.42.08-.5.27-.62,1.45-1.65,2.1-4.26,2.1h-1.69c-3.14,0-5.46-2.1-5.46-4.82v-.8c0-2.82,2.28-4.43,5.26-5l6-1.18Zm-2.4-14.52a3.87,3.87,0,1,1-4.17,3.86A4,4,0,0,1,186.09,1921.46Zm-.75,24.11c2.82,0,3.15-1.46,3.15-3.86v-1.26l-4.63,1.07a2.09,2.09,0,0,0-1.78,2v.38c0,1,.95,1.65,2.19,1.65Zm.75-18.61a1.65,1.65,0,1,0-1.78-1.64A1.71,1.71,0,0,0,186.09,1927Z"/><path class="cls-2" d="M210,1930.33a.6.6,0,0,0,.62-.62v-5.65a.6.6,0,0,1,.62-.61h3.59a.63.63,0,0,1,.66.61v19.79c0,4.2-2.93,5.66-9.21,5.65-5.58,0-8.15-1.87-8.15-5.65v-8.06c0-3.55,2.77-5.65,7.68-5.65C207.53,1930.14,208.64,1930.33,210,1930.33Zm-7,6.76v6.23c0,1.56.7,2.44,3.43,2.44h.66c2.81,0,3.51-.88,3.51-2.44v-8.64c0-.46-1.74-.8-3.93-.8C203.43,1933.88,203,1934.79,203,1937.09Z"/><path class="cls-2" d="M236.31,1940.64a.6.6,0,0,1-.62.62h-11v.57c0,2.29,2.1,3.7,5.08,3.7h5.12a.64.64,0,0,1,.67.62v2.37a.63.63,0,0,1-.67.61h-6c-5.2,0-9.09-2.53-9.09-7.49v-4.78c0-3.78,1.9-6.72,8.51-6.72,5.67,0,8,2.64,8,5.85Zm-11.61-3.13c0,.35.12.54.53.54h5.71a.6.6,0,0,0,.62-.62v-.84c0-1.71-.79-2.9-3.39-2.9-2.89,0-3.47,1.3-3.47,3Z"/><path class="cls-2" d="M242.21,1934.35a.6.6,0,0,0-.62-.62h-2.07a.62.62,0,0,1-.66-.61v-2.33a.63.63,0,0,1,.66-.61h2.07a.59.59,0,0,0,.62-.61V1926a.59.59,0,0,1,.62-.61h3.6a.62.62,0,0,1,.65.61v3.55a.59.59,0,0,0,.62.61h3.51a.63.63,0,0,1,.67.61v2.34a.63.63,0,0,1-.67.6H247.7a.6.6,0,0,0-.62.62v8.32c0,2.14.62,2.56,2.28,2.57h1.9a.59.59,0,0,1,.62.6v2.37a.58.58,0,0,1-.63.58h-4.66c-3.23,0-4.39-1.27-4.39-4.4Z"/><path class="cls-2" d="M265.39,1928.27c0-3.66,2.57-5.15,6.66-5.15h2.39a.57.57,0,0,1,.62.57v2.37a.6.6,0,0,1-.62.61H273c-2.06,0-2.72.65-2.72,2.56v.34a.6.6,0,0,0,.62.62h3.3a.63.63,0,0,1,.67.6v2.34a.62.62,0,0,1-.66.61h-3.3a.59.59,0,0,0-.62.61v13.83a.62.62,0,0,1-.65.61H266a.6.6,0,0,1-.62-.61v-13.83a.59.59,0,0,0-.62-.61H262.7a.63.63,0,0,1-.66-.61v-2.34a.63.63,0,0,1,.66-.61h2.07a.59.59,0,0,0,.62-.61Z"/><path class="cls-2" d="M277,1935.46c0-3.21,2.15-5.66,8.6-5.66s8.55,2.45,8.55,5.66v8.06c0,3.25-2.19,5.65-8.55,5.65s-8.6-2.4-8.6-5.65Zm4.88,7.33c0,1.76.66,2.83,3.72,2.83s3.68-1.07,3.68-2.83v-6.61c0-1.72-.71-2.82-3.68-2.82s-3.72,1.1-3.72,2.82Z"/><path class="cls-2" d="M299.75,1934.35a.6.6,0,0,0-.62-.61h-1.32a.63.63,0,0,1-.67-.61v-2.33a.63.63,0,0,1,.67-.61h10.08a5,5,0,0,1,5.25,4.77v1.46a.63.63,0,0,1-.66.61H309.3a.59.59,0,0,1-.62-.61v-.92c0-1.14-1-1.76-2.2-1.76h-1.24a.6.6,0,0,0-.62.61v10.28a.6.6,0,0,0,.62.61h3.81a.63.63,0,0,1,.66.61v2.34a.62.62,0,0,1-.66.6H297.81a.63.63,0,0,1-.67-.61v-2.33a.63.63,0,0,1,.67-.61h1.32a.59.59,0,0,0,.61-.61Z"/><path class="cls-2" d="M174,1948.12a1.38,1.38,0,0,1,.21.57c0,.31-.21.46-.58.46h-4a1.08,1.08,0,0,1-1-.61l-6.66-9.18a2.33,2.33,0,0,1-.57-1.6v-2.6a.63.63,0,0,1,.66-.62h4a2.1,2.1,0,0,0,2.19-2.06v-3.4A2.11,2.11,0,0,0,166,1927h-6.37a.6.6,0,0,0-.62.62v20.91a.63.63,0,0,1-.66.61h-3.77a.6.6,0,0,1-.62-.61v-20.91a.6.6,0,0,0-.62-.62H152a.62.62,0,0,1-.66-.61v-2.33a.63.63,0,0,1,.66-.61h16a5,5,0,0,1,5.25,4.89V1933a5,5,0,0,1-5.25,4.89h-1.53Z"/><rect class="cls-3" x="-0.39" y="2.05" width="2732" height="1873.44"/><g id="mand"><path class="cls-4" d="M558,607a1.79,1.79,0,1,0,1.4,1.75A1.62,1.62,0,0,0,558,607Z"/><path class="cls-4" d="M577.36,544.58a.3.3,0,0,0-.26.32.27.27,0,1,0,.53,0,.3.3,0,0,0-.27-.32Z"/><path class="cls-4" d="M860.27,616.63h230.12a48.92,48.92,0,0,1,48.92,48.92v505.23a0,0,0,0,1,0,0H811.5a0,0,0,0,1,0,0V665.4A48.76,48.76,0,0,1,860.27,616.63Z"/><path class="cls-4" d="M1306.32,982.19h0a69.17,69.17,0,0,1-107.88-6.63L1011.58,709.67l69.72-77.09a30.25,30.25,0,0,1,47.2,2.9L1311.61,896A69.16,69.16,0,0,1,1306.32,982.19Z"/><path class="cls-4" d="M656.89,982.38h0a68.83,68.83,0,0,0,106.9-10.71L930.16,715.25,853.49,637A25.25,25.25,0,0,0,814.27,641l-166,255.79A68.81,68.81,0,0,0,656.89,982.38Z"/><circle class="cls-4" cx="979.49" cy="490.53" r="138.23"/><rect class="cls-4" x="811.26" y="1092.87" width="134.14" height="487.91" rx="67.07"/><rect class="cls-4" x="1005.58" y="1092.87" width="134.14" height="487.91" rx="67.07"/></g><text class="cls-5" transform="translate(870.54 1697.71)">Mænd</text><text class="cls-6" transform="translate(1666.78 1700.17)"><tspan class="cls-7">K</tspan><tspan x="49.27" y="0">vinder</tspan></text><g id="kvinde"><path class="cls-4" d="M1477,854.5a1.35,1.35,0,1,0,1,1.32,1.22,1.22,0,0,0-1-1.32Z"/><path class="cls-4" d="M1537.19,905.05a.23.23,0,0,0,0,.44c.09,0,.16-.1.16-.22s-.07-.22-.16-.22Z"/><path class="cls-4" d="M1984.91,1408.48H1600l79.71-475.12A16.51,16.51,0,0,1,1696,919.6h179a16.48,16.48,0,0,1,16.18,13.3Z"/><path class="cls-4" d="M1530.14,1125.77h0a45.33,45.33,0,0,0,72,5.8l122.29-137a45.35,45.35,0,0,0,4.4-54.57h0a45.33,45.33,0,0,0-72-5.81l-122.29,137A45.33,45.33,0,0,0,1530.14,1125.77Z"/><path class="cls-4" d="M2035.35,1125.77h0a45.33,45.33,0,0,1-72,5.8L1841,994.58a45.35,45.35,0,0,1-4.4-54.57h0a45.33,45.33,0,0,1,72-5.81l122.29,137A45.33,45.33,0,0,1,2035.35,1125.77Z"/><path class="cls-4" d="M1727.58,1574.44h0a45.43,45.43,0,0,0,34.93-44.52l-1.68-242.47a45.43,45.43,0,0,0-56.73-43.69l-.21,0a45.42,45.42,0,0,0-34.13,44.36l1.88,242.42A45.43,45.43,0,0,0,1727.58,1574.44Z"/><path class="cls-4" d="M1882.27,1571.4h0a45.44,45.44,0,0,0,34.93-44.52l-1.68-242.47a45.43,45.43,0,0,0-56.73-43.7l-.21.06a45.42,45.42,0,0,0-34.13,44.36l1.88,242.41A45.43,45.43,0,0,0,1882.27,1571.4Z"/><circle class="cls-4" cx="1782.91" cy="832.77" r="103.72"/></g><text class="cls-8" transform="translate(872.3 910.28) scale(0.88 1)">68%</text><text class="cls-8" transform="translate(1685.27 1197.21) scale(0.88 1)">32%</text><text class="cls-9" transform="translate(2016.34 1973.25)">Kilde: POLAS (Rigspolit<tspan class="cls-10" x="471.67" y="0">i</tspan><tspan x="485.13" y="0">et), 2017</tspan></text><text class="cls-11" transform="translate(129.29 214.28)">H<tspan class="cls-12" x="71.72" y="0">v</tspan><tspan x="124.94" y="0">em </tspan><tspan class="cls-13" x="297.61" y="0">f</tspan><tspan class="cls-14" x="333.8" y="0">år ofte</tspan><tspan class="cls-15" x="659.73" y="0">s</tspan><tspan x="705.08" y="0">t </tspan><tspan class="cls-16" x="765.01" y="0">f</tspan><tspan class="cls-17" x="801.21" y="0">artbøder?</tspan></text></g></svg>
